<?xml version="1.0" encoding="UTF-8"?>
<svg width="400" height="400" viewBox="0 0 400 400" xmlns="http://www.w3.org/2000/svg">
  <defs>
    <!-- Gradients -->
    <linearGradient id="serverGradient" x1="0%" y1="0%" x2="100%" y2="100%">
      <stop offset="0%" style="stop-color:#ffffff"/>
      <stop offset="100%" style="stop-color:#e0e0e0"/>
    </linearGradient>

    <linearGradient id="lightGradient" x1="0%" y1="0%" x2="100%" y2="100%">
      <stop offset="0%" style="stop-color:#FF4B4B"/>
      <stop offset="100%" style="stop-color:#FF0000"/>
    </linearGradient>

    <linearGradient id="textGradient" x1="0%" y1="0%" x2="100%" y2="100%">
      <stop offset="0%" style="stop-color:#FF6B6B"/>
      <stop offset="100%" style="stop-color:#FF0000"/>
    </linearGradient>

    <!-- Glow effect -->
    <filter id="errorGlow" x="-50%" y="-50%" width="200%" height="200%">
      <feGaussianBlur stdDeviation="4" result="glow"/>
      <feMerge>
        <feMergeNode in="glow"/>
        <feMergeNode in="SourceGraphic"/>
      </feMerge>
    </filter>
  </defs>

  <!-- Server rack -->
  <g class="server-rack animate-float" transform="translate(200, 220)">
    <!-- Main body -->
    <rect x="-60" y="-80" width="120" height="160" rx="8"
          fill="url(#serverGradient)"
          class="rack-body"/>

    <!-- Server units -->
    <g class="server-units">
      <rect x="-50" y="-70" width="100" height="20" rx="4" fill="#95A5A6" class="unit"/>
      <rect x="-50" y="-40" width="100" height="20" rx="4" fill="#95A5A6" class="unit"/>
      <rect x="-50" y="-10" width="100" height="20" rx="4" fill="#95A5A6" class="unit"/>
      <rect x="-50" y="20" width="100" height="20" rx="4" fill="#95A5A6" class="unit"/>
      <rect x="-50" y="50" width="100" height="20" rx="4" fill="#95A5A6" class="unit"/>
    </g>

    <!-- Status lights -->
    <g class="status-lights">
      <circle cx="-40" cy="-60" r="3" fill="url(#lightGradient)" class="light animate-blink"/>
      <circle cx="-40" cy="-30" r="3" fill="url(#lightGradient)" class="light animate-blink"/>
      <circle cx="-40" cy="0" r="3" fill="url(#lightGradient)" class="light animate-blink"/>
      <circle cx="-40" cy="30" r="3" fill="url(#lightGradient)" class="light animate-blink"/>
      <circle cx="-40" cy="60" r="3" fill="url(#lightGradient)" class="light animate-blink"/>
    </g>

    <!-- Error symbols -->
    <g class="error-symbols" filter="url(#errorGlow)">
      <path d="M30,-40 L40,-30 L30,-20 L20,-30 Z" fill="#FF4B4B" class="symbol animate-pulse"/>
      <path d="M35,10 L45,20 L35,30 L25,20 Z" fill="#FF4B4B" class="symbol animate-pulse"/>
      <path d="M15,40 L25,50 L15,60 L5,50 Z" fill="#FF4B4B" class="symbol animate-pulse"/>
    </g>

    <!-- Connection lines -->
    <g class="connections">
      <path d="M-20,-70 C-40,-70 -40,-40 -20,-40"
            stroke="#95A5A6"
            stroke-width="2"
            fill="none"
            class="line animate-dash"/>
      <path d="M-20,0 C-40,0 -40,30 -20,30"
            stroke="#95A5A6"
            stroke-width="2"
            fill="none"
            class="line animate-dash"/>
    </g>
  </g>

  <!-- 500 Text -->
  <g class="error-text" transform="translate(200, 120)">
    <text text-anchor="middle"
          font-size="80"
          font-weight="bold"
          fill="url(#textGradient)"
          filter="url(#errorGlow)"
          class="main-text animate-glow">
      500
    </text>
    <text text-anchor="middle"
          y="40"
          font-size="20"
          fill="#fff"
          class="subtext">
      Server Error
    </text>
  </g>

  <!-- Floating elements -->
  <g class="floating-elements">
    <circle cx="100" cy="150" r="4" fill="#FF4B4B" class="particle animate-float"/>
    <circle cx="300" cy="250" r="3" fill="#FF0000" class="particle animate-float"/>
    <path d="M150,100 L160,110 L150,120 L140,110 Z" fill="#FF6B6B" class="error-shape animate-rotate"/>
    <path d="M250,200 L260,210 L250,220 L240,210 Z" fill="#FF6B6B" class="error-shape animate-rotate"/>
  </g>
</svg>
