<svg width="240" height="240" viewBox="0 0 240 240" fill="none" xmlns="http://www.w3.org/2000/svg">
  <style>
    .main-box {
      fill: #f3f4f6;
      stroke: #d1d5db;
      stroke-width: 2;
      transition: all 0.5s cubic-bezier(0.4, 0, 0.2, 1);
      filter: drop-shadow(0px 4px 6px rgba(0, 0, 0, 0.1));
    }
    .box-highlight {
      fill: #e0e7ff;
      opacity: 0;
      transition: all 0.5s cubic-bezier(0.4, 0, 0.2, 1);
    }
    .box-detail {
      stroke: #6b7280;
      fill: none;
      stroke-width: 2;
      stroke-linecap: round;
      stroke-linejoin: round;
      transition: all 0.5s cubic-bezier(0.4, 0, 0.2, 1);
    }
    .paper {
      fill: #ffffff;
      stroke: #d1d5db;
      stroke-width: 1;
      transition: all 0.5s cubic-bezier(0.4, 0, 0.2, 1);
    }
    .paper-line {
      stroke: #9ca3af;
      stroke-width: 1;
      stroke-linecap: round;
      transition: all 0.5s cubic-bezier(0.4, 0, 0.2, 1);
    }
    .shadow {
      fill: #e2e8f0;
      opacity: 0.6;
      transition: all 0.5s cubic-bezier(0.4, 0, 0.2, 1);
    }
    .stars {
      opacity: 0;
    }
    .star {
      fill: #fcd34d;
      transform-origin: center;
      transition: all 0.5s cubic-bezier(0.4, 0, 0.2, 1);
    }
    .sparkle {
      fill: #93c5fd;
      transform-origin: center;
      opacity: 0;
      transition: all 0.5s cubic-bezier(0.4, 0, 0.2, 1);
    }
    .envelope {
      transform-origin: center;
      transform: translateY(40px);
      opacity: 0;
      transition: all 0.6s cubic-bezier(0.4, 0, 0.2, 1);
    }
    .envelope-body {
      fill: #8b5cf6;
      transition: all 0.3s ease;
    }
    .envelope-flap {
      fill: #a78bfa;
      transition: all 0.3s ease;
    }
    .shine {
      fill: white;
      opacity: 0.2;
      transition: all 0.3s ease;
    }
    .bird {
      transform: translate(240px, 40px);
      transition: all 1.2s cubic-bezier(0.4, 0, 0.2, 1);
    }
    .bird-body {
      fill: #60a5fa;
      transition: all 0.3s ease;
    }
    .bird-wing {
      fill: #3b82f6;
      transform-origin: top;
      transition: all 0.3s ease;
    }

    /* Hover animations */
    svg:hover .main-box {
      fill: #f0f9ff;
      stroke: #7dd3fc;
    }
    svg:hover .box-highlight {
      opacity: 0.5;
    }
    svg:hover .box-detail {
      stroke: #0284c7;
    }
    svg:hover .paper {
      fill: #f9fafb;
      stroke: #60a5fa;
      transform: translateY(-10px) rotate(-5deg);
    }
    svg:hover .paper-line {
      stroke: #4f46e5;
    }
    svg:hover .shadow {
      fill: #bfdbfe;
      opacity: 0.5;
    }
    svg:hover .stars {
      opacity: 1;
    }
    svg:hover .sparkle {
      opacity: 1;
      animation: twinkle 2s infinite alternate;
    }
    svg:hover .star {
      animation: glow 3s infinite alternate;
    }
    svg:hover .envelope {
      transform: translateY(0);
      opacity: 1;
    }
    svg:hover .bird {
      transform: translate(120px, 40px);
    }
    svg:hover .bird-wing {
      animation: flap 0.8s infinite alternate;
    }

    /* Base animations */
    .floating {
      animation: float 8s ease-in-out infinite;
    }
    .sparkle-1 {
      animation-delay: 0.2s;
    }
    .sparkle-2 {
      animation-delay: 0.5s;
    }
    .sparkle-3 {
      animation-delay: 0.8s;
    }
    .star-1 {
      animation-delay: 0.3s;
    }
    .star-2 {
      animation-delay: 0.7s;
    }
    .star-3 {
      animation-delay: 1.1s;
    }

    @keyframes float {
      0%, 100% {
        transform: translateY(0);
      }
      50% {
        transform: translateY(-15px);
      }
    }

    @keyframes glow {
      0%, 100% {
        transform: scale(1);
        filter: drop-shadow(0px 0px 2px rgba(252, 211, 77, 0.8));
      }
      50% {
        transform: scale(1.2);
        filter: drop-shadow(0px 0px 8px rgba(252, 211, 77, 0.8));
      }
    }

    @keyframes twinkle {
      0%, 100% {
        opacity: 0.2;
        transform: scale(0.8);
      }
      50% {
        opacity: 1;
        transform: scale(1.2);
      }
    }

    @keyframes flap {
      0% {
        transform: rotate(0deg);
      }
      100% {
        transform: rotate(30deg);
      }
    }
  </style>

  <!-- Shadow -->
  <ellipse class="shadow" cx="120" cy="200" rx="70" ry="12"/>

  <!-- Floating group -->
  <g class="floating">
    <!-- Empty mailbox/post box -->
    <rect class="main-box" x="50" y="100" width="140" height="80" rx="8"/>
    <rect class="box-highlight" x="50" y="100" width="140" height="80" rx="8"/>

    <!-- Box opening -->
    <path class="box-detail" d="M50 120 L190 120"/>

    <!-- Door -->
    <path class="box-detail" d="M80 120 L80 160 L160 160 L160 120"/>

    <!-- Mail slot -->
    <rect class="box-detail" x="105" y="130" width="30" height="5" rx="2"/>

    <!-- Papers inside box -->
    <g class="papers">
      <rect class="paper" x="95" y="95" width="50" height="60" rx="3"/>
      <line class="paper-line" x1="105" y1="110" x2="135" y2="110"/>
      <line class="paper-line" x1="105" y1="120" x2="120" y2="120"/>
      <line class="paper-line" x1="105" y1="130" x2="125" y2="130"/>
      <line class="paper-line" x1="105" y1="140" x2="130" y2="140"/>
    </g>

    <!-- Stars and sparkles -->
    <g class="stars">
      <path class="star star-1" d="M70 70 L73 78 L82 79 L76 85 L78 94 L70 90 L62 94 L64 85 L58 79 L67 78 Z"/>
      <path class="star star-2" d="M170 60 L173 68 L182 69 L176 75 L178 84 L170 80 L162 84 L164 75 L158 69 L167 68 Z"/>
      <path class="star star-3" d="M120 45 L123 53 L132 54 L126 60 L128 69 L120 65 L112 69 L114 60 L108 54 L117 53 Z"/>

      <circle class="sparkle sparkle-1" cx="85" cy="85" r="3"/>
      <circle class="sparkle sparkle-2" cx="155" cy="75" r="2"/>
      <circle class="sparkle sparkle-3" cx="130" cy="65" r="2.5"/>
    </g>

    <!-- Envelope -->
    <g class="envelope">
      <path class="envelope-body" d="M75 170 L75 195 L105 195 L105 170 Z"/>
      <path class="envelope-flap" d="M75 170 L90 180 L105 170 Z"/>
      <path class="shine" d="M80 175 L85 180 L80 185 Z"/>
    </g>
  </g>

  <!-- Flying bird -->
  <g class="bird">
    <path class="bird-body" d="M10 40 C15 35, 20 35, 25 40 C30 45, 35 40, 35 35 L40 30 L35 40 C35 45, 30 50, 25 45 C20 40, 15 40, 10 40 Z"/>
    <path class="bird-wing" d="M25 35 C30 30, 35 30, 40 25 C35 30, 30 35, 25 35 Z"/>
  </g>
</svg>
