<?xml version="1.0" encoding="UTF-8"?>
<svg width="400" height="320" viewBox="0 0 400 320" fill="none" xmlns="http://www.w3.org/2000/svg">
  <style>
    @keyframes float {
      0%, 100% { transform: translateY(0); }
      20% { transform: translateY(12px); }
      50% { transform: translateY(-12px); }
      80% { transform: translateY(12px); }
    }
    @keyframes rotateY {
      0% { transform: rotateY(0deg); }
      100% { transform: rotateY(360deg); }
    }
    @keyframes rotateZ {
      0% { transform: rotate(0deg); }
      100% { transform: rotate(360deg); }
    }
    @keyframes pulse {
      0%, 100% { opacity: 0.7; }
      50% { opacity: 1; }
    }
    @keyframes wave {
      0%, 100% { transform: translateX(0); }
      25% { transform: translateX(-5px); }
      75% { transform: translateX(5px); }
    }
    @keyframes glow {
      0%, 100% { filter: drop-shadow(0 0 5px rgba(var(--color-primary-rgb, 52, 152, 219), 0.3)); }
      50% { filter: drop-shadow(0 0 20px rgba(var(--color-primary-rgb, 52, 152, 219), 0.7)); }
    }
    @keyframes dash {
      to { stroke-dashoffset: 0; }
    }
    @keyframes growLine {
      0% { transform: scaleX(0); }
      100% { transform: scaleX(1); }
    }
    @keyframes fadeIn {
      0% { opacity: 0; }
      100% { opacity: 1; }
    }
    @keyframes petalWave {
      0%, 100% { transform: rotate(0deg) scale(1); }
      25% { transform: rotate(3deg) scale(1.05); }
      75% { transform: rotate(-3deg) scale(0.98); }
    }
    @keyframes centerPulse {
      0%, 100% { transform: scale(1); filter: brightness(1); }
      50% { transform: scale(1.1); filter: brightness(1.2); }
    }
    @keyframes shimmer {
      0% { stroke-opacity: 0.3; stroke-width: 0.5; }
      50% { stroke-opacity: 0.8; stroke-width: 1.5; }
      100% { stroke-opacity: 0.3; stroke-width: 0.5; }
    }

    #five {
      animation: float 4s ease-in-out infinite;
    }
    #zero1 {
      animation: float 4s ease-in-out infinite 0.5s;
    }
    #zero2 {
      animation: float 4s ease-in-out infinite 1s;
    }
    .number-shadow {
      animation: pulse 4s ease-in-out infinite;
    }
    .gear {
      transform-origin: center;
      transform-box: fill-box;
      animation: rotateZ 20s linear infinite;
    }
    .gear-reverse {
      transform-origin: center;
      transform-box: fill-box;
      animation: rotateZ 15s linear infinite reverse;
    }

    /* Flower animations */
    .flower {
      transform-origin: center;
      animation: float 8s ease-in-out infinite;
    }
    .flower-shadow {
      animation: pulse 4s ease-in-out infinite;
    }
    .petal {
      transform-origin: bottom center;
      animation: petalWave 6s ease-in-out infinite;
    }
    .petal-inner {
      transform-origin: bottom center;
      animation: petalWave 8s ease-in-out infinite reverse;
    }
    .petal-1 { animation-delay: 0.0s; }
    .petal-2 { animation-delay: 0.5s; }
    .petal-3 { animation-delay: 1.0s; }
    .petal-4 { animation-delay: 1.5s; }
    .petal-5 { animation-delay: 2.0s; }
    .petal-6 { animation-delay: 2.5s; }
    .petal-7 { animation-delay: 3.0s; }
    .petal-8 { animation-delay: 3.5s; }

    .flower-center {
      transform-origin: center;
      animation: centerPulse 4s ease-in-out infinite;
    }
    .flower-detail {
      animation: shimmer 6s ease-in-out infinite;
    }

    .error-icon {
      animation: pulse 3s ease-in-out infinite, glow 4s ease-in-out infinite;
    }
    .grid-line {
      stroke-dasharray: 400;
      stroke-dashoffset: 400;
      animation: dash 2s ease-out forwards;
      transform-origin: left;
    }
    .h-grid {
      animation-delay: 0.2s, 0s;
      animation: growLine 1.5s ease-out forwards, dash 2s ease-out forwards;
    }
    .v-grid {
      animation-delay: 0.4s, 0.2s;
      animation: growLine 1.5s ease-out forwards, dash 2s ease-out forwards;
    }
    .orb {
      filter: blur(10px);
      animation: pulse 4s ease-in-out infinite;
      mix-blend-mode: screen;
    }
  </style>

  <!-- Background Grid -->
  <g opacity="0.2">
    <line class="grid-line h-grid" x1="40" y1="260" x2="360" y2="260" stroke="var(--color-text-tertiary, #718096)" stroke-width="1" />
    <line class="grid-line h-grid" x1="40" y1="220" x2="360" y2="220" stroke="var(--color-text-tertiary, #718096)" stroke-width="1" />
    <line class="grid-line h-grid" x1="40" y1="180" x2="360" y2="180" stroke="var(--color-text-tertiary, #718096)" stroke-width="1" />
    <line class="grid-line h-grid" x1="40" y1="140" x2="360" y2="140" stroke="var(--color-text-tertiary, #718096)" stroke-width="1" />
    <line class="grid-line h-grid" x1="40" y1="100" x2="360" y2="100" stroke="var(--color-text-tertiary, #718096)" stroke-width="1" />

    <line class="grid-line v-grid" x1="80" y1="80" x2="80" y2="280" stroke="var(--color-text-tertiary, #718096)" stroke-width="1" />
    <line class="grid-line v-grid" x1="160" y1="80" x2="160" y2="280" stroke="var(--color-text-tertiary, #718096)" stroke-width="1" />
    <line class="grid-line v-grid" x1="240" y1="80" x2="240" y2="280" stroke="var(--color-text-tertiary, #718096)" stroke-width="1" />
    <line class="grid-line v-grid" x1="320" y1="80" x2="320" y2="280" stroke="var(--color-text-tertiary, #718096)" stroke-width="1" />
  </g>

  <!-- Light Orbs -->
  <circle class="orb" cx="80" cy="100" r="40" fill="rgba(var(--color-primary-rgb, 52, 152, 219), 0.15)" />
  <circle class="orb" cx="320" cy="220" r="30" fill="rgba(var(--color-secondary-rgb, 231, 76, 60), 0.1)" />

  <!-- Decorative Elements -->
  <path class="gear" d="M40 40C45 32 55 32 60 40L68 35C70 27 80 25 85 32L95 30C100 23 110 25 112 33L123 35C130 30 138 35 137 42L147 48C152 45 158 50 155 58L163 68C165 75 160 82 152 80L155 92C155 100 145 104 140 98L137 110C133 117 122 115 120 108L112 117C105 122 95 117 95 108L85 113C77 115 70 107 73 100L63 102C55 102 50 92 55 85L47 82C42 77 45 67 53 65L48 55C50 47 60 45 65 52L65 42C70 35 83 38 85 47Z" fill="rgba(var(--color-primary-rgb, 52, 152, 219), 0.1)" transform="translate(10, 50) scale(0.35)" />

  <path class="gear-reverse" d="M40 40C45 32 55 32 60 40L68 35C70 27 80 25 85 32L95 30C100 23 110 25 112 33L123 35C130 30 138 35 137 42L147 48C152 45 158 50 155 58L163 68C165 75 160 82 152 80L155 92C155 100 145 104 140 98L137 110C133 117 122 115 120 108L112 117C105 122 95 117 95 108L85 113C77 115 70 107 73 100L63 102C55 102 50 92 55 85L47 82C42 77 45 67 53 65L48 55C50 47 60 45 65 52L65 42C70 35 83 38 85 47Z" fill="rgba(var(--color-secondary-rgb, 231, 76, 60), 0.1)" transform="translate(320, 200) scale(0.3)" />

  <!-- Beautiful Flower (replacing cube) -->
  <g class="flower" transform="translate(70, 120) scale(0.8)">
    <!-- Flower Shadow -->
    <ellipse class="flower-shadow" cx="150" cy="250" rx="60" ry="12" fill="rgba(0, 0, 0, 0.15)" />

    <!-- Stem -->
    <path d="M150 190C150 220 155 240 155 250"
          stroke="rgba(var(--color-success-rgb, 46, 204, 113), 0.9)"
          stroke-width="6"
          fill="none"
          stroke-linecap="round" />

    <!-- Leaves -->
    <path d="M155 235C175 225 185 235 175 245C165 255 140 245 155 235Z"
          fill="rgba(var(--color-success-rgb, 46, 204, 113), 0.7)"
          stroke="rgba(var(--color-success-rgb, 46, 204, 113), 0.9)"
          stroke-width="1.5" />

    <path d="M148 225C128 215 118 225 128 235C138 245 163 235 148 225Z"
          fill="rgba(var(--color-success-rgb, 46, 204, 113), 0.6)"
          stroke="rgba(var(--color-success-rgb, 46, 204, 113), 0.8)"
          stroke-width="1.5" />

    <!-- Main Petals - Large Outer Petals -->
    <!-- Petal 1 (Bottom) -->
    <path class="petal petal-1"
          d="M150 190C125 245 110 275 150 190Z"
          fill="url(#petalGradient1)"
          stroke="rgba(var(--color-primary-rgb, 52, 152, 219), 0.9)"
          stroke-width="1.5" />

    <!-- Petal 2 (Bottom Right) -->
    <path class="petal petal-2"
          d="M150 190C175 245 195 265 150 190Z"
          fill="url(#petalGradient2)"
          stroke="rgba(var(--color-primary-rgb, 52, 152, 219), 0.9)"
          stroke-width="1.5" />

    <!-- Petal 3 (Right) -->
    <path class="petal petal-3"
          d="M150 190C205 190 235 180 150 190Z"
          fill="url(#petalGradient3)"
          stroke="rgba(var(--color-primary-rgb, 52, 152, 219), 0.9)"
          stroke-width="1.5" />

    <!-- Petal 4 (Top Right) -->
    <path class="petal petal-4"
          d="M150 190C190 150 210 130 150 190Z"
          fill="url(#petalGradient4)"
          stroke="rgba(var(--color-primary-rgb, 52, 152, 219), 0.9)"
          stroke-width="1.5" />

    <!-- Petal 5 (Top) -->
    <path class="petal petal-5"
          d="M150 190C150 140 140 110 150 190Z"
          fill="url(#petalGradient5)"
          stroke="rgba(var(--color-primary-rgb, 52, 152, 219), 0.9)"
          stroke-width="1.5" />

    <!-- Petal 6 (Top Left) -->
    <path class="petal petal-6"
          d="M150 190C110 150 90 130 150 190Z"
          fill="url(#petalGradient6)"
          stroke="rgba(var(--color-primary-rgb, 52, 152, 219), 0.9)"
          stroke-width="1.5" />

    <!-- Petal 7 (Left) -->
    <path class="petal petal-7"
          d="M150 190C95 190 65 180 150 190Z"
          fill="url(#petalGradient7)"
          stroke="rgba(var(--color-primary-rgb, 52, 152, 219), 0.9)"
          stroke-width="1.5" />

    <!-- Petal 8 (Bottom Left) -->
    <path class="petal petal-8"
          d="M150 190C115 245 105 265 150 190Z"
          fill="url(#petalGradient8)"
          stroke="rgba(var(--color-primary-rgb, 52, 152, 219), 0.9)"
          stroke-width="1.5" />

    <!-- Inner Petals with gradient -->
    <!-- Inner Petal 1 -->
    <path class="petal-inner petal-1"
          d="M150 190C135 220 130 235 150 190Z"
          fill="url(#innerPetalGradient1)"
          stroke="rgba(var(--color-secondary-rgb, 231, 76, 60), 0.8)"
          stroke-width="1" />

    <!-- Inner Petal 2 -->
    <path class="petal-inner petal-3"
          d="M150 190C170 220 175 235 150 190Z"
          fill="url(#innerPetalGradient2)"
          stroke="rgba(var(--color-secondary-rgb, 231, 76, 60), 0.8)"
          stroke-width="1" />

    <!-- Inner Petal 3 -->
    <path class="petal-inner petal-5"
          d="M150 190C180 180 195 175 150 190Z"
          fill="url(#innerPetalGradient3)"
          stroke="rgba(var(--color-secondary-rgb, 231, 76, 60), 0.8)"
          stroke-width="1" />

    <!-- Inner Petal 4 -->
    <path class="petal-inner petal-7"
          d="M150 190C120 180 105 175 150 190Z"
          fill="url(#innerPetalGradient4)"
          stroke="rgba(var(--color-secondary-rgb, 231, 76, 60), 0.8)"
          stroke-width="1" />

    <!-- Additional small inner petals for more detail -->
    <path class="petal-inner petal-2"
          d="M150 190C160 170 155 160 150 190Z"
          fill="url(#innerPetalGradient5)"
          stroke="rgba(var(--color-secondary-rgb, 231, 76, 60), 0.7)"
          stroke-width="0.8" />

    <path class="petal-inner petal-4"
          d="M150 190C140 170 135 160 150 190Z"
          fill="url(#innerPetalGradient6)"
          stroke="rgba(var(--color-secondary-rgb, 231, 76, 60), 0.7)"
          stroke-width="0.8" />

    <!-- Flower Center with gradient -->
    <circle class="flower-center" cx="150" cy="190" r="18"
            fill="url(#centerGradient)"
            stroke="rgba(var(--color-warning-rgb, 241, 196, 15), 0.8)"
            stroke-width="2" />

    <!-- Center Details -->
    <circle class="flower-center" cx="150" cy="190" r="12"
            fill="url(#innerCenterGradient)" />

    <!-- Stamens (flower center details) -->
    <g class="stamens">
      <circle cx="150" cy="185" r="1.5" fill="rgba(var(--color-error-rgb, 231, 76, 60), 0.9)" />
      <circle cx="155" cy="187" r="1.5" fill="rgba(var(--color-error-rgb, 231, 76, 60), 0.9)" />
      <circle cx="153" cy="192" r="1.5" fill="rgba(var(--color-error-rgb, 231, 76, 60), 0.9)" />
      <circle cx="148" cy="193" r="1.5" fill="rgba(var(--color-error-rgb, 231, 76, 60), 0.9)" />
      <circle cx="145" cy="188" r="1.5" fill="rgba(var(--color-error-rgb, 231, 76, 60), 0.9)" />
      <circle cx="152" cy="182" r="1.5" fill="rgba(var(--color-error-rgb, 231, 76, 60), 0.9)" />
      <circle cx="147" cy="184" r="1.5" fill="rgba(var(--color-error-rgb, 231, 76, 60), 0.9)" />
    </g>

    <!-- Decorative Vein Lines for Petals -->
    <path class="flower-detail" d="M150 190L140 220" stroke="rgba(255, 255, 255, 0.8)" stroke-width="1" />
    <path class="flower-detail" d="M150 190L160 220" stroke="rgba(255, 255, 255, 0.8)" stroke-width="1" />
    <path class="flower-detail" d="M150 190L180 205" stroke="rgba(255, 255, 255, 0.8)" stroke-width="1" />
    <path class="flower-detail" d="M150 190L120 205" stroke="rgba(255, 255, 255, 0.8)" stroke-width="1" />
    <path class="flower-detail" d="M150 190L180 175" stroke="rgba(255, 255, 255, 0.8)" stroke-width="1" />
    <path class="flower-detail" d="M150 190L120 175" stroke="rgba(255, 255, 255, 0.8)" stroke-width="1" />
    <path class="flower-detail" d="M150 190L150 150" stroke="rgba(255, 255, 255, 0.8)" stroke-width="1" />
    <path class="flower-detail" d="M150 190L135 235" stroke="rgba(255, 255, 255, 0.7)" stroke-width="0.8" stroke-dasharray="2 3" />
    <path class="flower-detail" d="M150 190L165 235" stroke="rgba(255, 255, 255, 0.7)" stroke-width="0.8" stroke-dasharray="2 3" />

    <!-- Dew drops on petals -->
    <circle class="dew-drop" cx="165" cy="215" r="2" fill="rgba(255, 255, 255, 0.8)" filter="url(#dewDropShadow)" />
    <circle class="dew-drop" cx="135" cy="215" r="1.5" fill="rgba(255, 255, 255, 0.8)" filter="url(#dewDropShadow)" />
    <circle class="dew-drop" cx="175" cy="175" r="1.8" fill="rgba(255, 255, 255, 0.8)" filter="url(#dewDropShadow)" />
    <circle class="dew-drop" cx="125" cy="175" r="1.2" fill="rgba(255, 255, 255, 0.8)" filter="url(#dewDropShadow)" />
  </g>

  <!-- Define gradients for flower parts -->
  <defs>
    <!-- Drop shadow for dew drops -->
    <filter id="dewDropShadow" x="-50%" y="-50%" width="200%" height="200%">
      <feGaussianBlur in="SourceAlpha" stdDeviation="1" />
      <feOffset dx="0.5" dy="0.5" />
      <feComponentTransfer>
        <feFuncA type="linear" slope="0.5" />
      </feComponentTransfer>
      <feMerge>
        <feMergeNode />
        <feMergeNode in="SourceGraphic" />
      </feMerge>
    </filter>

    <!-- Gradients for main petals -->
    <linearGradient id="petalGradient1" x1="0%" y1="0%" x2="100%" y2="100%">
      <stop offset="0%" stop-color="var(--color-primary, #3498db)" stop-opacity="0.9" />
      <stop offset="100%" stop-color="var(--color-primary-light, #5dade2)" stop-opacity="0.7" />
    </linearGradient>

    <linearGradient id="petalGradient2" x1="100%" y1="0%" x2="0%" y2="100%">
      <stop offset="0%" stop-color="var(--color-primary, #3498db)" stop-opacity="0.9" />
      <stop offset="100%" stop-color="var(--color-primary-light, #5dade2)" stop-opacity="0.7" />
    </linearGradient>

    <linearGradient id="petalGradient3" x1="0%" y1="0%" x2="100%" y2="0%">
      <stop offset="0%" stop-color="var(--color-primary, #3498db)" stop-opacity="0.9" />
      <stop offset="100%" stop-color="var(--color-primary-light, #5dade2)" stop-opacity="0.7" />
    </linearGradient>

    <linearGradient id="petalGradient4" x1="100%" y1="100%" x2="0%" y2="0%">
      <stop offset="0%" stop-color="var(--color-primary, #3498db)" stop-opacity="0.9" />
      <stop offset="100%" stop-color="var(--color-primary-light, #5dade2)" stop-opacity="0.7" />
    </linearGradient>

    <linearGradient id="petalGradient5" x1="0%" y1="100%" x2="0%" y2="0%">
      <stop offset="0%" stop-color="var(--color-primary, #3498db)" stop-opacity="0.9" />
      <stop offset="100%" stop-color="var(--color-primary-light, #5dade2)" stop-opacity="0.7" />
    </linearGradient>

    <linearGradient id="petalGradient6" x1="0%" y1="0%" x2="100%" y2="100%">
      <stop offset="0%" stop-color="var(--color-primary, #3498db)" stop-opacity="0.9" />
      <stop offset="100%" stop-color="var(--color-primary-light, #5dade2)" stop-opacity="0.7" />
    </linearGradient>

    <linearGradient id="petalGradient7" x1="100%" y1="0%" x2="0%" y2="0%">
      <stop offset="0%" stop-color="var(--color-primary, #3498db)" stop-opacity="0.9" />
      <stop offset="100%" stop-color="var(--color-primary-light, #5dade2)" stop-opacity="0.7" />
    </linearGradient>

    <linearGradient id="petalGradient8" x1="100%" y1="100%" x2="0%" y2="0%">
      <stop offset="0%" stop-color="var(--color-primary, #3498db)" stop-opacity="0.9" />
      <stop offset="100%" stop-color="var(--color-primary-light, #5dade2)" stop-opacity="0.7" />
    </linearGradient>

    <!-- Gradients for inner petals -->
    <linearGradient id="innerPetalGradient1" x1="0%" y1="0%" x2="100%" y2="100%">
      <stop offset="0%" stop-color="var(--color-secondary, #e74c3c)" stop-opacity="0.8" />
      <stop offset="100%" stop-color="var(--color-secondary-light, #ec7063)" stop-opacity="0.6" />
    </linearGradient>

    <linearGradient id="innerPetalGradient2" x1="100%" y1="0%" x2="0%" y2="100%">
      <stop offset="0%" stop-color="var(--color-secondary, #e74c3c)" stop-opacity="0.8" />
      <stop offset="100%" stop-color="var(--color-secondary-light, #ec7063)" stop-opacity="0.6" />
    </linearGradient>

    <linearGradient id="innerPetalGradient3" x1="0%" y1="50%" x2="100%" y2="50%">
      <stop offset="0%" stop-color="var(--color-secondary, #e74c3c)" stop-opacity="0.8" />
      <stop offset="100%" stop-color="var(--color-secondary-light, #ec7063)" stop-opacity="0.6" />
    </linearGradient>

    <linearGradient id="innerPetalGradient4" x1="100%" y1="50%" x2="0%" y2="50%">
      <stop offset="0%" stop-color="var(--color-secondary, #e74c3c)" stop-opacity="0.8" />
      <stop offset="100%" stop-color="var(--color-secondary-light, #ec7063)" stop-opacity="0.6" />
    </linearGradient>

    <linearGradient id="innerPetalGradient5" x1="0%" y1="0%" x2="100%" y2="100%">
      <stop offset="0%" stop-color="var(--color-secondary, #e74c3c)" stop-opacity="0.7" />
      <stop offset="100%" stop-color="var(--color-primary-light, #5dade2)" stop-opacity="0.5" />
    </linearGradient>

    <linearGradient id="innerPetalGradient6" x1="100%" y1="0%" x2="0%" y2="100%">
      <stop offset="0%" stop-color="var(--color-secondary, #e74c3c)" stop-opacity="0.7" />
      <stop offset="100%" stop-color="var(--color-primary-light, #5dade2)" stop-opacity="0.5" />
    </linearGradient>

    <!-- Gradients for flower center -->
    <radialGradient id="centerGradient" cx="50%" cy="50%" r="50%" fx="40%" fy="40%">
      <stop offset="0%" stop-color="var(--color-warning-light, #f4d03f)" stop-opacity="1" />
      <stop offset="100%" stop-color="var(--color-warning, #f1c40f)" stop-opacity="0.9" />
    </radialGradient>

    <radialGradient id="innerCenterGradient" cx="50%" cy="50%" r="50%" fx="30%" fy="30%">
      <stop offset="0%" stop-color="var(--color-error-light, #ec7063)" stop-opacity="0.9" />
      <stop offset="100%" stop-color="var(--color-error, #e74c3c)" stop-opacity="0.8" />
    </radialGradient>
  </defs>

  <!-- Error Icon -->
  <g class="error-icon" transform="translate(300, 40) scale(0.9)">
    <circle cx="30" cy="30" r="25" fill="rgba(var(--color-error-rgb, 231, 76, 60), 0.1)" />
    <circle cx="30" cy="30" r="20" stroke="var(--color-error, #e74c3c)" stroke-width="2.5" fill="none" />
    <line x1="20" y1="20" x2="40" y2="40" stroke="var(--color-error, #e74c3c)" stroke-width="2.5" />
    <line x1="40" y1="20" x2="20" y2="40" stroke="var(--color-error, #e74c3c)" stroke-width="2.5" />
  </g>

  <!-- 500 3D Text -->
  <g transform="translate(60, 180)">
    <!-- Number 5 Shadow -->
    <text class="number-shadow" x="6" y="6" font-family="Arial, sans-serif" font-size="110" font-weight="900" fill="rgba(0, 0, 0, 0.15)">5</text>

    <!-- Number 5 -->
    <g id="five">
      <!-- Deep layer -->
      <text x="4" y="4" font-family="Arial, sans-serif" font-size="110" font-weight="900" fill="rgba(var(--color-primary-rgb, 52, 152, 219), 0.3)">5</text>
      <!-- Middle layer -->
      <text x="2" y="2" font-family="Arial, sans-serif" font-size="110" font-weight="900" fill="rgba(var(--color-primary-rgb, 52, 152, 219), 0.6)">5</text>
      <!-- Top layer -->
      <text x="0" y="0" font-family="Arial, sans-serif" font-size="110" font-weight="900" fill="var(--color-primary, #3498db)">5</text>
    </g>
  </g>

  <g transform="translate(140, 180)">
    <!-- Number 0 Shadow -->
    <text class="number-shadow" x="6" y="6" font-family="Arial, sans-serif" font-size="110" font-weight="900" fill="rgba(0, 0, 0, 0.15)">0</text>

    <!-- Number 0 -->
    <g id="zero1">
      <!-- Deep layer -->
      <text x="4" y="4" font-family="Arial, sans-serif" font-size="110" font-weight="900" fill="rgba(var(--color-primary-rgb, 52, 152, 219), 0.3)">0</text>
      <!-- Middle layer -->
      <text x="2" y="2" font-family="Arial, sans-serif" font-size="110" font-weight="900" fill="rgba(var(--color-primary-rgb, 52, 152, 219), 0.6)">0</text>
      <!-- Top layer -->
      <text x="0" y="0" font-family="Arial, sans-serif" font-size="110" font-weight="900" fill="var(--color-primary, #3498db)">0</text>
    </g>
  </g>

  <g transform="translate(220, 180)">
    <!-- Number 0 Shadow -->
    <text class="number-shadow" x="6" y="6" font-family="Arial, sans-serif" font-size="110" font-weight="900" fill="rgba(0, 0, 0, 0.15)">0</text>

    <!-- Number 0 -->
    <g id="zero2">
      <!-- Deep layer -->
      <text x="4" y="4" font-family="Arial, sans-serif" font-size="110" font-weight="900" fill="rgba(var(--color-primary-rgb, 52, 152, 219), 0.3)">0</text>
      <!-- Middle layer -->
      <text x="2" y="2" font-family="Arial, sans-serif" font-size="110" font-weight="900" fill="rgba(var(--color-primary-rgb, 52, 152, 219), 0.6)">0</text>
      <!-- Top layer -->
      <text x="0" y="0" font-family="Arial, sans-serif" font-size="110" font-weight="900" fill="var(--color-primary, #3498db)">0</text>
    </g>
  </g>
</svg>
