<svg
  xmlns="http://www.w3.org/2000/svg"
  viewBox="0 0 240 240"
  fill="none"
  class="maintenance-svg"
>
  <!-- 定义滤镜、渐变等 -->
  <defs>
    <!-- 主要滤镜 -->
    <filter id="inner-shadow" x="-50%" y="-50%" width="200%" height="200%" filterUnits="userSpaceOnUse">
      <feGaussianBlur in="SourceAlpha" stdDeviation="3" result="blur" />
      <feOffset dx="1" dy="1" result="offsetblur" />
      <feComposite in="SourceGraphic" in2="offsetblur" operator="over" />
    </filter>

    <filter id="edge-glow" x="-50%" y="-50%" width="200%" height="200%" filterUnits="userSpaceOnUse">
      <feGaussianBlur stdDeviation="1.5" result="blur" />
      <feComposite in="SourceGraphic" in2="blur" operator="over" />
    </filter>

    <filter id="tooth-shadow" x="-50%" y="-50%" width="200%" height="200%" filterUnits="userSpaceOnUse">
      <feGaussianBlur stdDeviation="0.8" result="blur" />
      <feOffset dx="0.5" dy="0.5" result="offsetblur" />
      <feComposite in="SourceGraphic" in2="offsetblur" operator="over" />
    </filter>

    <filter id="dot-glow" x="-100%" y="-100%" width="300%" height="300%" filterUnits="userSpaceOnUse">
      <feGaussianBlur stdDeviation="1.5" result="blur" />
      <feComposite in="SourceGraphic" in2="blur" operator="over" />
    </filter>

    <!-- 高级金属效果 -->
    <linearGradient id="gear-body-gradient" x1="0%" y1="0%" x2="100%" y2="100%">
      <stop offset="0%" stop-color="#3B82F6" />
      <stop offset="40%" stop-color="#2563EB" />
      <stop offset="70%" stop-color="#1D4ED8" />
      <stop offset="100%" stop-color="#1E40AF" />
    </linearGradient>

    <linearGradient id="gear-edge-gradient" x1="0%" y1="0%" x2="100%" y2="100%">
      <stop offset="0%" stop-color="#60A5FA" />
      <stop offset="100%" stop-color="#2563EB" />
    </linearGradient>

    <linearGradient id="gear-inner-gradient" x1="0%" y1="0%" x2="100%" y2="100%">
      <stop offset="0%" stop-color="#2563EB" />
      <stop offset="100%" stop-color="#1E40AF" />
    </linearGradient>

    <linearGradient id="center-metal-gradient" x1="0%" y1="0%" x2="100%" y2="100%">
      <stop offset="0%" stop-color="#E5E7EB" />
      <stop offset="50%" stop-color="#9CA3AF" />
      <stop offset="100%" stop-color="#6B7280" />
    </linearGradient>

    <!-- 红色齿轮 -->
    <linearGradient id="gear2-body-gradient" x1="0%" y1="0%" x2="100%" y2="100%">
      <stop offset="0%" stop-color="#F87171" />
      <stop offset="40%" stop-color="#EF4444" />
      <stop offset="70%" stop-color="#DC2626" />
      <stop offset="100%" stop-color="#B91C1C" />
    </linearGradient>

    <linearGradient id="gear2-edge-gradient" x1="0%" y1="0%" x2="100%" y2="100%">
      <stop offset="0%" stop-color="#FCA5A5" />
      <stop offset="100%" stop-color="#EF4444" />
    </linearGradient>

    <!-- 青色齿轮 -->
    <linearGradient id="gear3-body-gradient" x1="0%" y1="0%" x2="100%" y2="100%">
      <stop offset="0%" stop-color="#67E8F9" />
      <stop offset="40%" stop-color="#22D3EE" />
      <stop offset="70%" stop-color="#06B6D4" />
      <stop offset="100%" stop-color="#0891B2" />
    </linearGradient>

    <linearGradient id="gear3-edge-gradient" x1="0%" y1="0%" x2="100%" y2="100%">
      <stop offset="0%" stop-color="#A5F3FC" />
      <stop offset="100%" stop-color="#06B6D4" />
    </linearGradient>

    <!-- 高光和阴影效果 -->
    <radialGradient id="tooth-highlight" cx="30%" cy="30%" r="70%" fx="30%" fy="30%">
      <stop offset="0%" stop-color="rgba(255,255,255,0.9)" />
      <stop offset="100%" stop-color="rgba(255,255,255,0)" />
    </radialGradient>

    <!-- 工具图标效果 -->
    <linearGradient id="wrench-gradient" x1="0%" y1="0%" x2="100%" y2="100%">
      <stop offset="0%" stop-color="#A78BFA" />
      <stop offset="100%" stop-color="#7C3AED" />
    </linearGradient>

    <linearGradient id="wrench-handle-gradient" x1="0%" y1="0%" x2="100%" y2="100%">
      <stop offset="0%" stop-color="#C4B5FD" />
      <stop offset="100%" stop-color="#8B5CF6" />
    </linearGradient>

    <!-- 点和文本效果 -->
    <linearGradient id="dot-gradient" x1="0%" y1="0%" x2="100%" y2="100%">
      <stop offset="0%" stop-color="#FDE68A" />
      <stop offset="100%" stop-color="#F59E0B" />
    </linearGradient>

    <linearGradient id="text-gradient" x1="0%" y1="0%" x2="100%" y2="100%">
      <stop offset="0%" stop-color="#FFFFFF" />
      <stop offset="100%" stop-color="#E5E7EB" />
    </linearGradient>

    <!-- 3D 效果辅助滤镜 -->
    <filter id="bevel" x="-50%" y="-50%" width="200%" height="200%" filterUnits="userSpaceOnUse">
      <feSpecularLighting result="specOut" specularExponent="20" lighting-color="#FFFFFF">
        <fePointLight x="50" y="50" z="200" />
      </feSpecularLighting>
      <feComposite in="SourceGraphic" in2="specOut" operator="arithmetic" k1="0" k2="1" k3="1" k4="0" />
    </filter>

    <!-- 模拟金属质感的杂点滤镜 -->
    <filter id="noise" x="0%" y="0%" width="100%" height="100%">
      <feTurbulence type="fractalNoise" baseFrequency="0.65" numOctaves="3" result="noise" />
      <feColorMatrix in="noise" type="matrix" values="1 0 0 0 0 0 1 0 0 0 0 0 1 0 0 0 0 0 0.05 0" result="coloredNoise" />
      <feComposite in="SourceGraphic" in2="coloredNoise" operator="arithmetic" k1="0" k2="1" k3="0.2" k4="0" />
    </filter>
  </defs>

  <!-- 大型齿轮 - 精细化3D效果 -->
  <g class="gear gear-1">
    <!-- 齿轮外环 -->
    <circle cx="120" cy="120" r="50" fill="url(#gear-body-gradient)" filter="url(#noise)" />
    <circle cx="120" cy="120" r="45" stroke="url(#gear-edge-gradient)" stroke-width="2" fill="none" filter="url(#edge-glow)" />

    <!-- 齿轮内环 -->
    <circle cx="120" cy="120" r="30" fill="url(#gear-inner-gradient)" stroke="url(#gear-edge-gradient)" stroke-width="1" />

    <!-- 中心轴 -->
    <circle cx="120" cy="120" r="10" fill="url(#center-metal-gradient)" filter="url(#inner-shadow)" />
    <circle cx="120" cy="120" r="6" fill="#6B7280" />
    <circle cx="120" cy="120" r="3" fill="#374151" />

    <!-- 齿轮轮齿 - 更复杂的齿形 -->
    <!-- 顶部齿 -->
    <path d="M120,70 L112,58 L128,58 Z" fill="url(#gear-body-gradient)" filter="url(#tooth-shadow)" />
    <path d="M120,70 L115,60 L125,60 L120,70" fill="url(#tooth-highlight)" opacity="0.4" />

    <!-- 底部齿 -->
    <path d="M120,170 L112,182 L128,182 Z" fill="url(#gear-body-gradient)" filter="url(#tooth-shadow)" />
    <path d="M120,170 L115,180 L125,180 L120,170" fill="url(#tooth-highlight)" opacity="0.4" />

    <!-- 左侧齿 -->
    <path d="M70,120 L58,112 L58,128 Z" fill="url(#gear-body-gradient)" filter="url(#tooth-shadow)" />
    <path d="M70,120 L60,115 L60,125 L70,120" fill="url(#tooth-highlight)" opacity="0.4" />

    <!-- 右侧齿 -->
    <path d="M170,120 L182,112 L182,128 Z" fill="url(#gear-body-gradient)" filter="url(#tooth-shadow)" />
    <path d="M170,120 L180,115 L180,125 L170,120" fill="url(#tooth-highlight)" opacity="0.4" />

    <!-- 对角齿 -->
    <path d="M87,87 L78,78 L87,69 Z" fill="url(#gear-body-gradient)" filter="url(#tooth-shadow)" />
    <path d="M87,87 L82,78 L77,83 L87,87" fill="url(#tooth-highlight)" opacity="0.4" />

    <path d="M153,153 L162,162 L171,153 Z" fill="url(#gear-body-gradient)" filter="url(#tooth-shadow)" />
    <path d="M153,153 L158,162 L163,157 L153,153" fill="url(#tooth-highlight)" opacity="0.4" />

    <path d="M87,153 L78,162 L69,153 Z" fill="url(#gear-body-gradient)" filter="url(#tooth-shadow)" />
    <path d="M87,153 L78,158 L83,163 L87,153" fill="url(#tooth-highlight)" opacity="0.4" />

    <path d="M153,87 L162,78 L153,69 Z" fill="url(#gear-body-gradient)" filter="url(#tooth-shadow)" />
    <path d="M153,87 L162,82 L157,77 L153,87" fill="url(#tooth-highlight)" opacity="0.4" />

    <!-- 光泽高光效果 -->
    <path d="M95,95 A 35,35 0 0,1 145,95" stroke="rgba(255,255,255,0.7)" stroke-width="2" fill="none" class="highlight" />
  </g>

  <!-- 中型齿轮 - 精细化3D效果 -->
  <g class="gear gear-2">
    <!-- 齿轮外环 -->
    <circle cx="185" cy="80" r="30" fill="url(#gear2-body-gradient)" filter="url(#noise)" />
    <circle cx="185" cy="80" r="27" stroke="url(#gear2-edge-gradient)" stroke-width="1.5" fill="none" filter="url(#edge-glow)" />

    <!-- 齿轮内环 -->
    <circle cx="185" cy="80" r="18" fill="#DC2626" stroke="url(#gear2-edge-gradient)" stroke-width="1" />

    <!-- 中心轴 -->
    <circle cx="185" cy="80" r="6" fill="url(#center-metal-gradient)" filter="url(#inner-shadow)" />
    <circle cx="185" cy="80" r="4" fill="#6B7280" />
    <circle cx="185" cy="80" r="2" fill="#374151" />

    <!-- 齿轮轮齿 - 更复杂的齿形 -->
    <!-- 顶部齿 -->
    <path d="M185,50 L180,45 L190,45 Z" fill="url(#gear2-body-gradient)" filter="url(#tooth-shadow)" />
    <path d="M185,50 L182,46 L188,46 L185,50" fill="url(#tooth-highlight)" opacity="0.4" />

    <!-- 底部齿 -->
    <path d="M185,110 L180,115 L190,115 Z" fill="url(#gear2-body-gradient)" filter="url(#tooth-shadow)" />
    <path d="M185,110 L182,114 L188,114 L185,110" fill="url(#tooth-highlight)" opacity="0.4" />

    <!-- 左侧齿 -->
    <path d="M155,80 L150,75 L150,85 Z" fill="url(#gear2-body-gradient)" filter="url(#tooth-shadow)" />
    <path d="M155,80 L151,77 L151,83 L155,80" fill="url(#tooth-highlight)" opacity="0.4" />

    <!-- 右侧齿 -->
    <path d="M215,80 L220,75 L220,85 Z" fill="url(#gear2-body-gradient)" filter="url(#tooth-shadow)" />
    <path d="M215,80 L219,77 L219,83 L215,80" fill="url(#tooth-highlight)" opacity="0.4" />

    <!-- 对角齿 -->
    <path d="M165,60 L157,52 L165,44 Z" fill="url(#gear2-body-gradient)" filter="url(#tooth-shadow)" />
    <path d="M165,60 L161,55 L158,58 L165,60" fill="url(#tooth-highlight)" opacity="0.4" />

    <path d="M205,100 L213,108 L221,100 Z" fill="url(#gear2-body-gradient)" filter="url(#tooth-shadow)" />
    <path d="M205,100 L209,105 L212,102 L205,100" fill="url(#tooth-highlight)" opacity="0.4" />

    <path d="M165,100 L157,108 L149,100 Z" fill="url(#gear2-body-gradient)" filter="url(#tooth-shadow)" />
    <path d="M165,100 L161,105 L164,108 L165,100" fill="url(#tooth-highlight)" opacity="0.4" />

    <path d="M205,60 L213,52 L205,44 Z" fill="url(#gear2-body-gradient)" filter="url(#tooth-shadow)" />
    <path d="M205,60 L209,55 L206,52 L205,60" fill="url(#tooth-highlight)" opacity="0.4" />

    <!-- 光泽高光效果 -->
    <path d="M173,67 A 20,20 0 0,1 197,67" stroke="rgba(255,255,255,0.7)" stroke-width="1.5" fill="none" class="highlight" />
  </g>

  <!-- 小型齿轮 - 精细化3D效果 -->
  <g class="gear gear-3">
    <!-- 齿轮外环 -->
    <circle cx="60" cy="160" r="22" fill="url(#gear3-body-gradient)" filter="url(#noise)" />
    <circle cx="60" cy="160" r="20" stroke="url(#gear3-edge-gradient)" stroke-width="1" fill="none" filter="url(#edge-glow)" />

    <!-- 齿轮内环 -->
    <circle cx="60" cy="160" r="13" fill="#0E7490" stroke="url(#gear3-edge-gradient)" stroke-width="0.5" />

    <!-- 中心轴 -->
    <circle cx="60" cy="160" r="4.5" fill="url(#center-metal-gradient)" filter="url(#inner-shadow)" />
    <circle cx="60" cy="160" r="3" fill="#6B7280" />
    <circle cx="60" cy="160" r="1.5" fill="#374151" />

    <!-- 齿轮轮齿 - 更复杂的齿形 -->
    <!-- 顶部齿 -->
    <path d="M60,138 L56,134 L64,134 Z" fill="url(#gear3-body-gradient)" filter="url(#tooth-shadow)" />
    <path d="M60,138 L58,135 L62,135 L60,138" fill="url(#tooth-highlight)" opacity="0.4" />

    <!-- 底部齿 -->
    <path d="M60,182 L56,186 L64,186 Z" fill="url(#gear3-body-gradient)" filter="url(#tooth-shadow)" />
    <path d="M60,182 L58,185 L62,185 L60,182" fill="url(#tooth-highlight)" opacity="0.4" />

    <!-- 左侧齿 -->
    <path d="M38,160 L34,156 L34,164 Z" fill="url(#gear3-body-gradient)" filter="url(#tooth-shadow)" />
    <path d="M38,160 L35,158 L35,162 L38,160" fill="url(#tooth-highlight)" opacity="0.4" />

    <!-- 右侧齿 -->
    <path d="M82,160 L86,156 L86,164 Z" fill="url(#gear3-body-gradient)" filter="url(#tooth-shadow)" />
    <path d="M82,160 L85,158 L85,162 L82,160" fill="url(#tooth-highlight)" opacity="0.4" />

    <!-- 对角齿 -->
    <path d="M45,145 L38,138 L45,131 Z" fill="url(#gear3-body-gradient)" filter="url(#tooth-shadow)" />
    <path d="M45,145 L42,141 L40,143 L45,145" fill="url(#tooth-highlight)" opacity="0.4" />

    <path d="M75,175 L82,182 L89,175 Z" fill="url(#gear3-body-gradient)" filter="url(#tooth-shadow)" />
    <path d="M75,175 L78,179 L80,177 L75,175" fill="url(#tooth-highlight)" opacity="0.4" />

    <path d="M45,175 L38,182 L31,175 Z" fill="url(#gear3-body-gradient)" filter="url(#tooth-shadow)" />
    <path d="M45,175 L42,179 L44,181 L45,175" fill="url(#tooth-highlight)" opacity="0.4" />

    <path d="M75,145 L82,138 L75,131 Z" fill="url(#gear3-body-gradient)" filter="url(#tooth-shadow)" />
    <path d="M75,145 L78,141 L76,139 L75,145" fill="url(#tooth-highlight)" opacity="0.4" />

    <!-- 光泽高光效果 -->
    <path d="M52,151 A 14,14 0 0,1 68,151" stroke="rgba(255,255,255,0.7)" stroke-width="1" fill="none" class="highlight" />
  </g>

  <!-- 工具图标 - 扳手 -->
  <g class="wrench">
    <path d="M35,175 C28,155 42,148 53,160 L46,173 C36,180 35,175 35,175Z" fill="url(#wrench-gradient)" filter="url(#tool-shadow)" />
    <path d="M48,160 L60,172 L55,180 L43,168Z" fill="url(#wrench-handle-gradient)" filter="url(#tool-shadow)" />
    <!-- 扳手高光 -->
    <path d="M38,170 C35,165 40,158 45,165" stroke="rgba(255,255,255,0.8)" stroke-width="1" fill="none" />
    <!-- 扳手内部细节 -->
    <circle cx="45" cy="165" r="2" fill="rgba(124, 58, 237, 0.8)" />
  </g>

  <!-- 进度点 - 更现代的设计 -->
  <g class="progress-dots">
    <circle class="dot dot-1" cx="35" cy="120" r="5" fill="url(#dot-gradient)" filter="url(#dot-glow)" />
    <circle class="dot dot-2" cx="50" cy="120" r="5" fill="url(#dot-gradient)" filter="url(#dot-glow)" />
    <circle class="dot dot-3" cx="65" cy="120" r="5" fill="url(#dot-gradient)" filter="url(#dot-glow)" />
  </g>

  <!-- 润色 - 添加更多细节 -->
  <g class="gear-details" opacity="0.6">
    <!-- 大齿轮纹理线 -->
    <path d="M120,100 A20,20 0 0,1 140,120" stroke="#1E40AF" stroke-width="0.5" fill="none" />
    <path d="M100,120 A20,20 0 0,1 120,140" stroke="#1E40AF" stroke-width="0.5" fill="none" />

    <!-- 中齿轮纹理线 -->
    <path d="M185,70 A10,10 0 0,1 195,80" stroke="#B91C1C" stroke-width="0.5" fill="none" />
    <path d="M175,80 A10,10 0 0,1 185,90" stroke="#B91C1C" stroke-width="0.5" fill="none" />

    <!-- 小齿轮纹理线 -->
    <path d="M60,152 A8,8 0 0,1 68,160" stroke="#0891B2" stroke-width="0.3" fill="none" />
    <path d="M52,160 A8,8 0 0,1 60,168" stroke="#0891B2" stroke-width="0.3" fill="none" />
  </g>

  <style>
    .maintenance-svg {
      overflow: visible;
      will-change: transform;
    }

    .gear-1 {
      transform-origin: 120px 120px;
      animation: rotate-gear-1 24s linear infinite;
      will-change: transform;
    }

    .gear-2 {
      transform-origin: 185px 80px;
      animation: rotate-gear-2 18s linear infinite;
      will-change: transform;
    }

    .gear-3 {
      transform-origin: 60px 160px;
      animation: rotate-gear-3 14s linear infinite;
      will-change: transform;
    }

    .wrench {
      transform-origin: 45px 170px;
      animation: wrench-wiggle 5s ease-in-out infinite;
      will-change: transform;
    }

    .highlight {
      opacity: 0.7;
      animation: highlight-fade 4s ease-in-out infinite;
      will-change: opacity;
    }

    .progress-dots .dot {
      opacity: 0;
      animation: dot-pulse 2s ease-in-out infinite;
      will-change: opacity, transform;
    }

    .dot-1 {
      animation-delay: 0s;
    }

    .dot-2 {
      animation-delay: 0.4s;
    }

    .dot-3 {
      animation-delay: 0.8s;
    }

    @keyframes rotate-gear-1 {
      0% { transform: rotate(0deg); }
      100% { transform: rotate(360deg); }
    }

    @keyframes rotate-gear-2 {
      0% { transform: rotate(0deg); }
      100% { transform: rotate(-360deg); }
    }

    @keyframes rotate-gear-3 {
      0% { transform: rotate(0deg); }
      100% { transform: rotate(360deg); }
    }

    @keyframes wrench-wiggle {
      0%, 100% { transform: rotate(0deg); }
      25% { transform: rotate(-10deg); }
      75% { transform: rotate(10deg); }
    }

    @keyframes highlight-fade {
      0%, 100% { opacity: 0.7; }
      50% { opacity: 0.3; }
    }

    @keyframes dot-pulse {
      0%, 100% { opacity: 0; transform: scale(1); }
      50% { opacity: 1; transform: scale(1.2); }
    }
  </style>
</svg>
